<mxfile host="app.diagrams.net" modified="2024-05-20T15:35:57.172Z" agent="Mozilla/5.0 (Windows NT 10.0; Win64; x64; rv:126.0) Gecko/20100101 Firefox/126.0" etag="7UFZ6YY171bakkq1LlZB" version="24.4.4" type="github">
  <diagram name="Страница — 1" id="kCzSuUrboCWIJ4RZx0Jl">
    <mxGraphModel dx="1354" dy="1017" grid="0" gridSize="10" guides="1" tooltips="1" connect="1" arrows="1" fold="1" page="0" pageScale="1" pageWidth="827" pageHeight="1169" math="0" shadow="0">
      <root>
        <mxCell id="0" />
        <mxCell id="1" parent="0" />
        <mxCell id="PmZiuKjpS1Z25TlZc6ZO-2" value="&lt;h2&gt;SpringBoot application&lt;br&gt;&lt;/h2&gt;" style="rounded=1;whiteSpace=wrap;html=1;labelPosition=center;verticalLabelPosition=top;align=center;verticalAlign=bottom;" vertex="1" parent="1">
          <mxGeometry x="-114" y="-66" width="406" height="399" as="geometry" />
        </mxCell>
        <mxCell id="PmZiuKjpS1Z25TlZc6ZO-4" value="SpringConfiguration" style="rounded=0;whiteSpace=wrap;html=1;" vertex="1" parent="1">
          <mxGeometry x="-89" y="42" width="141" height="75" as="geometry" />
        </mxCell>
        <mxCell id="PmZiuKjpS1Z25TlZc6ZO-8" value="Domain layer" style="rounded=0;whiteSpace=wrap;html=1;" vertex="1" parent="1">
          <mxGeometry x="109.5" y="93" width="141" height="75" as="geometry" />
        </mxCell>
        <mxCell id="PmZiuKjpS1Z25TlZc6ZO-10" style="edgeStyle=none;curved=1;rounded=0;orthogonalLoop=1;jettySize=auto;html=1;fontSize=12;startSize=8;endSize=8;" edge="1" parent="1" target="PmZiuKjpS1Z25TlZc6ZO-8">
          <mxGeometry relative="1" as="geometry">
            <mxPoint x="178.75" y="168" as="sourcePoint" />
          </mxGeometry>
        </mxCell>
        <mxCell id="PmZiuKjpS1Z25TlZc6ZO-17" value="" style="group" vertex="1" connectable="0" parent="1">
          <mxGeometry x="101" y="-39" width="160" height="94" as="geometry" />
        </mxCell>
        <mxCell id="PmZiuKjpS1Z25TlZc6ZO-14" value="Data layer" style="rounded=1;whiteSpace=wrap;html=1;labelPosition=center;verticalLabelPosition=top;align=center;verticalAlign=bottom;" vertex="1" parent="PmZiuKjpS1Z25TlZc6ZO-17">
          <mxGeometry width="160" height="94" as="geometry" />
        </mxCell>
        <mxCell id="PmZiuKjpS1Z25TlZc6ZO-15" value="Hibernate" style="rounded=0;whiteSpace=wrap;html=1;" vertex="1" parent="PmZiuKjpS1Z25TlZc6ZO-17">
          <mxGeometry x="20" y="17" width="120" height="60" as="geometry" />
        </mxCell>
        <mxCell id="PmZiuKjpS1Z25TlZc6ZO-19" style="edgeStyle=none;curved=1;rounded=0;orthogonalLoop=1;jettySize=auto;html=1;fontSize=12;startSize=8;endSize=8;" edge="1" parent="1" source="PmZiuKjpS1Z25TlZc6ZO-14" target="PmZiuKjpS1Z25TlZc6ZO-8">
          <mxGeometry relative="1" as="geometry" />
        </mxCell>
        <mxCell id="PmZiuKjpS1Z25TlZc6ZO-20" value="&lt;div&gt;DTOs&lt;/div&gt;" style="rounded=0;whiteSpace=wrap;html=1;" vertex="1" parent="1">
          <mxGeometry x="-89" y="153" width="141" height="75" as="geometry" />
        </mxCell>
        <mxCell id="PmZiuKjpS1Z25TlZc6ZO-21" value="PostrgreSQL DataBase" style="rounded=0;whiteSpace=wrap;html=1;" vertex="1" parent="1">
          <mxGeometry x="336" y="-22" width="120" height="60" as="geometry" />
        </mxCell>
        <mxCell id="PmZiuKjpS1Z25TlZc6ZO-22" value="" style="edgeStyle=none;curved=1;rounded=0;orthogonalLoop=1;jettySize=auto;html=1;fontSize=12;startSize=8;endSize=8;" edge="1" parent="1" source="PmZiuKjpS1Z25TlZc6ZO-14" target="PmZiuKjpS1Z25TlZc6ZO-21">
          <mxGeometry relative="1" as="geometry" />
        </mxCell>
        <mxCell id="PmZiuKjpS1Z25TlZc6ZO-24" value="" style="group" vertex="1" connectable="0" parent="1">
          <mxGeometry x="101" y="206" width="160" height="94" as="geometry" />
        </mxCell>
        <mxCell id="PmZiuKjpS1Z25TlZc6ZO-25" value="Presentation layer" style="rounded=1;whiteSpace=wrap;html=1;labelPosition=center;verticalLabelPosition=top;align=center;verticalAlign=bottom;" vertex="1" parent="PmZiuKjpS1Z25TlZc6ZO-24">
          <mxGeometry width="160" height="94" as="geometry" />
        </mxCell>
        <mxCell id="PmZiuKjpS1Z25TlZc6ZO-26" value="REST controllers" style="rounded=0;whiteSpace=wrap;html=1;" vertex="1" parent="PmZiuKjpS1Z25TlZc6ZO-24">
          <mxGeometry x="20" y="17" width="120" height="60" as="geometry" />
        </mxCell>
        <mxCell id="PmZiuKjpS1Z25TlZc6ZO-28" style="edgeStyle=none;curved=1;rounded=0;orthogonalLoop=1;jettySize=auto;html=1;fontSize=12;startSize=8;endSize=8;" edge="1" parent="1" source="PmZiuKjpS1Z25TlZc6ZO-25" target="PmZiuKjpS1Z25TlZc6ZO-8">
          <mxGeometry relative="1" as="geometry" />
        </mxCell>
        <mxCell id="PmZiuKjpS1Z25TlZc6ZO-29" value="Gradle" style="rounded=0;whiteSpace=wrap;html=1;" vertex="1" parent="1">
          <mxGeometry x="-288" y="103.5" width="120" height="60" as="geometry" />
        </mxCell>
      </root>
    </mxGraphModel>
  </diagram>
</mxfile>
